<svg width="32" height="32" viewBox="0 0 32 32" fill="none" xmlns="http://www.w3.org/2000/svg">
<g clip-path="url(#clip0_390_990)">
<circle cx="16" cy="16" r="16" fill="#FAF6ED"/>
<mask id="mask0_390_990" style="mask-type:alpha" maskUnits="userSpaceOnUse" x="2" y="2" width="28" height="28">
<rect x="2" y="2" width="28" height="28" fill="#D9D9D9"/>
</mask>
<g mask="url(#mask0_390_990)">
<path d="M7.24967 16.1458C6.43301 16.1458 5.74273 15.8639 5.17884 15.3C4.61495 14.7361 4.33301 14.0458 4.33301 13.2291C4.33301 12.4125 4.61495 11.7222 5.17884 11.1583C5.74273 10.5944 6.43301 10.3125 7.24967 10.3125C8.06634 10.3125 8.75662 10.5944 9.32051 11.1583C9.8844 11.7222 10.1663 12.4125 10.1663 13.2291C10.1663 14.0458 9.8844 14.7361 9.32051 15.3C8.75662 15.8639 8.06634 16.1458 7.24967 16.1458ZM12.4997 11.4791C11.683 11.4791 10.9927 11.1972 10.4288 10.6333C9.86495 10.0694 9.58301 9.37915 9.58301 8.56248C9.58301 7.74581 9.86495 7.05554 10.4288 6.49165C10.9927 5.92776 11.683 5.64581 12.4997 5.64581C13.3163 5.64581 14.0066 5.92776 14.5705 6.49165C15.1344 7.05554 15.4163 7.74581 15.4163 8.56248C15.4163 9.37915 15.1344 10.0694 14.5705 10.6333C14.0066 11.1972 13.3163 11.4791 12.4997 11.4791ZM19.4997 11.4791C18.683 11.4791 17.9927 11.1972 17.4288 10.6333C16.865 10.0694 16.583 9.37915 16.583 8.56248C16.583 7.74581 16.865 7.05554 17.4288 6.49165C17.9927 5.92776 18.683 5.64581 19.4997 5.64581C20.3163 5.64581 21.0066 5.92776 21.5705 6.49165C22.1344 7.05554 22.4163 7.74581 22.4163 8.56248C22.4163 9.37915 22.1344 10.0694 21.5705 10.6333C21.0066 11.1972 20.3163 11.4791 19.4997 11.4791ZM24.7497 16.1458C23.933 16.1458 23.2427 15.8639 22.6788 15.3C22.115 14.7361 21.833 14.0458 21.833 13.2291C21.833 12.4125 22.115 11.7222 22.6788 11.1583C23.2427 10.5944 23.933 10.3125 24.7497 10.3125C25.5663 10.3125 26.2566 10.5944 26.8205 11.1583C27.3844 11.7222 27.6663 12.4125 27.6663 13.2291C27.6663 14.0458 27.3844 14.7361 26.8205 15.3C26.2566 15.8639 25.5663 16.1458 24.7497 16.1458ZM9.75801 27.8125C8.88301 27.8125 8.14898 27.4771 7.55592 26.8062C6.96287 26.1354 6.66634 25.343 6.66634 24.4291C6.66634 23.418 7.01148 22.5333 7.70176 21.775C8.39204 21.0166 9.07745 20.268 9.75801 19.5291C10.3219 18.9264 10.808 18.2701 11.2163 17.5604C11.6247 16.8507 12.1108 16.1847 12.6747 15.5625C13.1025 15.0569 13.5983 14.6389 14.1622 14.3083C14.7261 13.9778 15.3386 13.8125 15.9997 13.8125C16.6608 13.8125 17.2733 13.968 17.8372 14.2791C18.4011 14.5903 18.8969 14.9986 19.3247 15.5041C19.8691 16.1264 20.3504 16.7972 20.7684 17.5166C21.1865 18.2361 21.6775 18.9069 22.2413 19.5291C22.9219 20.268 23.6073 21.0166 24.2976 21.775C24.9879 22.5333 25.333 23.418 25.333 24.4291C25.333 25.343 25.0365 26.1354 24.4434 26.8062C23.8504 27.4771 23.1163 27.8125 22.2413 27.8125C21.1913 27.8125 20.1511 27.725 19.1205 27.55C18.09 27.375 17.0497 27.2875 15.9997 27.2875C14.9497 27.2875 13.9094 27.375 12.8788 27.55C11.8483 27.725 10.808 27.8125 9.75801 27.8125Z" fill="#FFBB55"/>
</g>
</g>
<defs>
<clipPath id="clip0_390_990">
<rect width="32" height="32" fill="white"/>
</clipPath>
</defs>
</svg>
